<svg xmlns="http://www.w3.org/2000/svg" xml:space="preserve" version="1.1" style="shape-rendering:geometricPrecision; text-rendering:geometricPrecision; image-rendering:optimizeQuality; fill-rule:evenodd; clip-rule:evenodd"
viewBox="0 0 4220.65 1432.54"
 xmlns:xlink="http://www.w3.org/1999/xlink">
 <defs>
  <style type="text/css">
   <![CDATA[
    .fil0 {fill:black;fill-rule:nonzero}
    .fil1 {fill:#D20000;fill-rule:nonzero}
   ]]>
  </style>
 </defs>
 <g id="Layer_x0020_1">
  <metadata id="CorelCorpID_0Corel-Layer"/>
  <g id="_1776475614128">
   <g>
    <polygon class="fil0" points="3591.28,1223.13 4220.65,1223.13 4220.65,1062.95 3822.33,1062.95 3822.33,961.01 4156.86,961.01 4156.86,807.61 3822.33,807.61 3822.33,715.38 4213.33,715.38 4213.33,555.2 3591.28,555.2 "/>
    <polygon class="fil0" points="2265.68,726.07 2265.68,555.19 1563.13,555.19 1563.13,726.07 1799.41,726.07 1799.41,1223.13 2030.45,1223.13 2030.45,726.07 "/>
    <path class="fil0" d="M3460.6 760.05c0,-36.9 -9.24,-71.02 -27.71,-102.43 -18.47,-31.38 -46,-56.31 -82.59,-74.74 -36.58,-18.45 -80.68,-27.67 -132.24,-27.67l-440.13 0 0 667.93 231.04 0 0 -243.68 85.71 0 127.54 243.68 259.28 0 -159.95 -279.6c45.29,-15.53 79.8,-39.81 103.5,-72.81 23.69,-33.02 35.55,-69.9 35.55,-110.68zm-235.23 8.73c0,17.48 -6.26,32.21 -18.82,44.18 -12.54,11.98 -27.89,17.96 -45.99,17.96l-151.59 0 0 -123.3 151.59 0c18.1,0 33.45,5.83 45.99,17.48 12.55,11.64 18.82,26.21 18.82,43.69z"/>
    <polygon class="fil0" points="2629.07,555.2 2414.51,555.2 2414.51,1223.14 2629.07,1223.14 "/>
   </g>
   <g>
    <path class="fil1" d="M1449.47 348.32c0,-66.85 -17.76,-127.43 -53.28,-181.75 -35.51,-54.31 -83.56,-96.43 -144.13,-126.39 -37.56,-18.55 -77.32,-32.02 -119.54,-38.39 -45.85,-6.91 -87.33,5.67 -103.65,48.27l-89.21 200.31c-17.84,32.32 -5.43,76.24 10.53,92.74 20.9,21.6 31.34,47.71 31.34,78.34l0 20.88c0,32.06 -10.13,58.86 -30.29,80.44 -20.21,21.6 -45.63,32.38 -76.26,32.38l-71.04 0 -132.12 296.65 236.59 0c30.61,0 56.04,10.81 76.24,32.38 20.18,21.61 30.29,48.4 30.29,80.43l0 20.89c0,32.05 -10.11,58.85 -30.29,80.43 -20.2,21.61 -45.63,32.38 -76.24,32.38l-346.37 0 -148.86 334.24 651.9 0c76.58,0 146.92,-15.98 211,-48.04 64.04,-32.02 114.54,-76.94 151.46,-134.74 36.88,-57.78 55.36,-124.3 55.36,-199.5 0,-197.74 -91.24,-317.54 -273.67,-359.33l0 -8.35c160.13,-45.96 240.24,-157.36 240.24,-334.25z"/>
    <path class="fil0" d="M404.16 1310.51l360.69 -810.12 -0.02 0c47.69,-107.09 -0.48,-232.56 -107.58,-280.24 -107.08,-47.69 -232.56,0.48 -280.24,107.56l-0.01 0 -360.69 810.12 0.41 0.18c-44.73,106.19 3.17,229.07 108.91,276.17 105.76,47.08 229.12,0.44 278.11,-103.85l0.41 0.19z"/>
   </g>
  </g>
 </g>
</svg>
